<?xml version="1.0" encoding="UTF-8" standalone="no"?>
<svg
   version="1.0"
   width="512"
   height="512"
   viewBox="0 0 512 512"
   preserveAspectRatio="xMidYMid"
   id="svg5"
   xmlns="http://www.w3.org/2000/svg"
   xmlns:svg="http://www.w3.org/2000/svg">
  <defs
     id="defs5" />
  <g
     transform="matrix(0.06253481,0,0,-0.06253481,-364.29905,900.35211)"
     fill="#000000"
     stroke="none"
     id="g5"
     style="fill:#e3b6ed">
    <path
       d="m 9997,12962 c -6,-7 -79,-136 -164,-285 -84,-150 -215,-381 -291,-513 l -137,-241 -410,-7 c -225,-4 -602,-6 -837,-4 l -428,3 -21,-50 c -40,-92 -179,-427 -179,-431 0,-2 358,-4 795,-4 437,0 795,-4 795,-8 0,-8 -151,-282 -282,-512 l -54,-95 -901,-3 -900,-2 -47,-109 c -25,-60 -71,-168 -100,-240 l -55,-131 h 860 c 633,0 859,-3 859,-11 0,-7 -10,-27 -21,-46 -12,-19 -19,-36 -17,-39 3,-2 83,-27 179,-55 175,-52 1112,-323 1138,-330 16,-5 38,30 317,519 108,188 198,341 199,340 2,-2 23,-39 47,-83 24,-44 78,-138 120,-210 132,-228 190,-328 233,-405 183,-327 922,-1611 956,-1662 247,-369 656,-627 1096,-693 97,-15 443,-20 989,-15 h 32 l -73,128 c -39,70 -152,269 -250,442 -98,173 -224,396 -280,495 -57,99 -162,286 -235,415 -73,129 -251,442 -395,695 -144,253 -331,582 -415,730 -518,914 -1184,2084 -1289,2264 l -96,163 -363,2 c -289,1 -366,-2 -375,-12 z"
       id="path1"
       style="fill:#e3b6ed" />
    <path
       d="m 6962,11887 c -74,-27 -132,-97 -147,-180 -18,-92 49,-208 140,-243 64,-24 162,-15 215,20 119,79 135,249 32,349 -62,60 -160,82 -240,54 z"
       id="path2"
       style="fill:#e3b6ed" />
    <path
       d="m 6240,10791 c -78,-25 -131,-73 -155,-140 -54,-155 49,-305 210,-305 202,0 306,234 171,382 -46,52 -163,84 -226,63 z"
       id="path3"
       style="fill:#e3b6ed" />
    <path
       d="m 7141,9473 c -22,-54 -67,-161 -99,-238 l -59,-140 408,-5 408,-5 -43,-75 c -57,-100 -435,-768 -625,-1102 -83,-148 -151,-270 -151,-272 0,-2 197,-3 438,-2 359,2 453,5 527,19 349,64 623,202 867,435 129,123 223,252 327,448 l 43,81 507,311 c 666,410 1024,632 1030,637 2,3 -792,5 -1766,5 H 7182 Z"
       id="path4"
       style="fill:#e3b6ed" />
    <path
       d="m 6403,9539 c -114,-57 -156,-190 -97,-307 56,-112 182,-153 300,-98 87,40 129,116 122,220 -5,76 -36,131 -100,173 -57,38 -163,44 -225,12 z"
       id="path5"
       style="fill:#e3b6ed" />
  </g>
</svg>
