<svg xmlns="http://www.w3.org/2000/svg" xmlns:svg="http://www.w3.org/2000/svg" xmlns:xlink="http://www.w3.org/1999/xlink" id="svg1" width="192" height="240" x="0" y="0" version="1.0" viewBox="0 0 192 240" xml:space="preserve"><defs id="defs84"><linearGradient id="linearGradient3597"><stop id="stop3599" offset="0" style="stop-color:#fff;stop-opacity:1"/><stop id="stop3601" offset="1" style="stop-color:#e6e6e6;stop-opacity:1"/></linearGradient><radialGradient id="radialGradient6974" cx="232.688" cy="567.999" r="347.37" fx="232.688" fy="567.999" gradientTransform="matrix(0.11213021,0,0,0.11213021,7.8498292,-4.9021029)" gradientUnits="userSpaceOnUse" xlink:href="#linearGradient6968"/><linearGradient id="linearGradient6968"><stop id="stop6970" offset="0" style="stop-color:#80e5ff;stop-opacity:1"/><stop id="stop6972" offset="1" style="stop-color:#2a7fff;stop-opacity:1"/></linearGradient><filter id="filter6964" width="1.166" height="1.227" x="-.083" y="-.114" style="color-interpolation-filters:sRGB"><feGaussianBlur id="feGaussianBlur6966" stdDeviation="18.43"/></filter><filter id="filter6892" width="1.139" height="1.057" x="-.07" y="-.028" style="color-interpolation-filters:sRGB"><feGaussianBlur id="feGaussianBlur6894" stdDeviation=".289"/></filter><filter id="filter6625" width="1.143" height="1.059" x="-.072" y="-.03" style="color-interpolation-filters:sRGB"><feGaussianBlur id="feGaussianBlur6627" stdDeviation="4.554"/></filter><filter id="filter6691" width="1.12" height="1.068" x="-.06" y="-.034" style="color-interpolation-filters:sRGB"><feGaussianBlur id="feGaussianBlur6693" stdDeviation="5.349"/></filter><clipPath id="clipPath10504" clipPathUnits="userSpaceOnUse"><rect style="fill:#2affd5;fill-opacity:1;fill-rule:evenodd;stroke:none" id="rect10506" width="183.148" height="335.058" x="-11974.308" y="-8282.97" rx=".015" ry=".037"/></clipPath><clipPath id="clipPath5411" clipPathUnits="userSpaceOnUse"><rect style="fill:#c87137;fill-opacity:1;fill-rule:evenodd;stroke:#000;stroke-width:4.45080233;stroke-miterlimit:4;stroke-dasharray:none;stroke-opacity:1" id="rect5413" width="197.968" height="1007.734" x="-4245.468" y="240.878" rx=".026" ry=".371"/></clipPath></defs><metadata id="metadata921"/><g id="g6424" transform="matrix(1.8055318,0,0,1.8055318,8.647764,68.471312)"><g style="fill:#37c871;fill-opacity:1" id="g11258" clip-path="url(#clipPath10504)" transform="matrix(0.07727078,0,0,0.07727078,965.9119,692.76244)"><rect style="fill:#37c871;fill-opacity:1;fill-rule:evenodd;stroke:none" id="rect11260" width="112.695" height="1003.208" x="-11936.847" y="-8294.706" rx=".145" ry=".163"/><g id="g11262" clip-path="url(#clipPath5411)" transform="translate(-7735.9289,-8526.9955)" style="fill:#37c871;fill-opacity:1;stroke:none"><g id="g11264" style="fill:#37c871;fill-opacity:1;stroke:none"><rect style="fill:#37c871;fill-opacity:1;fill-rule:evenodd;stroke:none" id="rect11266" width="173.178" height="33.986" x="-4251.124" y="-999.615" rx=".068" ry=".074" transform="matrix(0.8740313,-0.48586961,0.51426471,0.85763151,0,0)"/><rect style="fill:#37c871;fill-opacity:1;fill-rule:evenodd;stroke:none" id="rect11268" width="173.178" height="33.986" x="-4274.935" y="-959.146" rx=".068" ry=".074" transform="matrix(0.8740313,-0.48586961,0.51426471,0.85763151,0,0)"/><rect id="rect11270" width="173.178" height="33.986" x="-4203.502" y="-1080.552" rx=".068" ry=".074" transform="matrix(0.8740313,-0.48586961,0.51426471,0.85763151,0,0)" style="fill:#37c871;fill-opacity:1;fill-rule:evenodd;stroke:none"/><rect id="rect11272" width="173.178" height="33.986" x="-4155.88" y="-1161.489" rx=".068" ry=".074" transform="matrix(0.8740313,-0.48586961,0.51426471,0.85763151,0,0)" style="fill:#37c871;fill-opacity:1;fill-rule:evenodd;stroke:none"/><rect style="fill:#37c871;fill-opacity:1;fill-rule:evenodd;stroke:none" id="rect11274" width="173.178" height="33.986" x="-4298.746" y="-918.678" rx=".068" ry=".074" transform="matrix(0.8740313,-0.48586961,0.51426471,0.85763151,0,0)"/><rect id="rect11276" width="173.178" height="33.986" x="-4227.313" y="-1040.083" rx=".068" ry=".074" transform="matrix(0.8740313,-0.48586961,0.51426471,0.85763151,0,0)" style="fill:#37c871;fill-opacity:1;fill-rule:evenodd;stroke:none"/><rect style="fill:#37c871;fill-opacity:1;fill-rule:evenodd;stroke:none" id="rect11278" width="173.178" height="33.986" x="-4108.258" y="-1242.426" rx=".068" ry=".074" transform="matrix(0.8740313,-0.48586961,0.51426471,0.85763151,0,0)"/><rect id="rect11280" width="173.178" height="33.986" x="-4036.825" y="-1363.831" rx=".068" ry=".074" transform="matrix(0.8740313,-0.48586961,0.51426471,0.85763151,0,0)" style="fill:#37c871;fill-opacity:1;fill-rule:evenodd;stroke:none"/><rect style="fill:#37c871;fill-opacity:1;fill-rule:evenodd;stroke:none" id="rect11282" width="173.178" height="33.986" x="-4132.069" y="-1201.957" rx=".068" ry=".074" transform="matrix(0.8740313,-0.48586961,0.51426471,0.85763151,0,0)"/><rect id="rect11284" width="173.178" height="33.986" x="-4179.691" y="-1121.02" rx=".068" ry=".074" transform="matrix(0.8740313,-0.48586961,0.51426471,0.85763151,0,0)" style="fill:#37c871;fill-opacity:1;fill-rule:evenodd;stroke:none"/><rect style="fill:#37c871;fill-opacity:1;fill-rule:evenodd;stroke:none" id="rect11286" width="173.178" height="33.986" x="-3965.393" y="-1485.237" rx=".068" ry=".074" transform="matrix(0.8740313,-0.48586961,0.51426471,0.85763151,0,0)"/><rect id="rect11288" width="173.178" height="33.986" x="-4060.637" y="-1323.363" rx=".068" ry=".074" transform="matrix(0.8740313,-0.48586961,0.51426471,0.85763151,0,0)" style="fill:#37c871;fill-opacity:1;fill-rule:evenodd;stroke:none"/><rect style="fill:#37c871;fill-opacity:1;fill-rule:evenodd;stroke:none" id="rect11290" width="173.178" height="33.986" x="-4084.447" y="-1282.894" rx=".068" ry=".074" transform="matrix(0.8740313,-0.48586961,0.51426471,0.85763151,0,0)"/><rect id="rect11292" width="173.178" height="33.986" x="-4013.014" y="-1404.3" rx=".068" ry=".074" transform="matrix(0.8740313,-0.48586961,0.51426471,0.85763151,0,0)" style="fill:#37c871;fill-opacity:1;fill-rule:evenodd;stroke:none"/><rect style="fill:#37c871;fill-opacity:1;fill-rule:evenodd;stroke:none" id="rect11294" width="173.178" height="33.986" x="-3893.96" y="-1606.642" rx=".068" ry=".074" transform="matrix(0.8740313,-0.48586961,0.51426471,0.85763151,0,0)"/><rect id="rect11296" width="173.178" height="33.986" x="-3989.204" y="-1444.768" rx=".068" ry=".074" transform="matrix(0.8740313,-0.48586961,0.51426471,0.85763151,0,0)" style="fill:#37c871;fill-opacity:1;fill-rule:evenodd;stroke:none"/><rect style="fill:#37c871;fill-opacity:1;fill-rule:evenodd;stroke:none" id="rect11298" width="173.178" height="33.986" x="-3941.582" y="-1525.705" rx=".068" ry=".074" transform="matrix(0.8740313,-0.48586961,0.51426471,0.85763151,0,0)"/><rect id="rect11300" width="173.178" height="33.986" x="-3822.527" y="-1728.047" rx=".068" ry=".074" transform="matrix(0.8740313,-0.48586961,0.51426471,0.85763151,0,0)" style="fill:#37c871;fill-opacity:1;fill-rule:evenodd;stroke:none"/><rect style="fill:#37c871;fill-opacity:1;fill-rule:evenodd;stroke:none" id="rect11302" width="173.178" height="33.986" x="-3846.338" y="-1687.579" rx=".068" ry=".074" transform="matrix(0.8740313,-0.48586961,0.51426471,0.85763151,0,0)"/><rect id="rect11304" width="173.178" height="33.986" x="-3917.771" y="-1566.174" rx=".068" ry=".074" transform="matrix(0.8740313,-0.48586961,0.51426471,0.85763151,0,0)" style="fill:#37c871;fill-opacity:1;fill-rule:evenodd;stroke:none"/><rect style="fill:#37c871;fill-opacity:1;fill-rule:evenodd;stroke:none" id="rect11306" width="173.178" height="33.986" x="-3798.716" y="-1768.516" rx=".068" ry=".074" transform="matrix(0.8740313,-0.48586961,0.51426471,0.85763151,0,0)"/><rect id="rect11308" width="173.178" height="33.986" x="-3870.149" y="-1647.111" rx=".068" ry=".074" transform="matrix(0.8740313,-0.48586961,0.51426471,0.85763151,0,0)" style="fill:#37c871;fill-opacity:1;fill-rule:evenodd;stroke:none"/><rect style="fill:#37c871;fill-opacity:1;fill-rule:evenodd;stroke:none" id="rect11310" width="173.178" height="33.986" x="-3774.905" y="-1808.984" rx=".068" ry=".074" transform="matrix(0.8740313,-0.48586961,0.51426471,0.85763151,0,0)"/><rect id="rect11312" width="173.178" height="33.986" x="2862.915" y="3030.665" rx=".068" ry=".074" transform="matrix(-0.8740313,-0.48586961,-0.51426471,0.85763151,0,0)" style="fill:#37c871;fill-opacity:1;fill-rule:evenodd;stroke:none"/><rect id="rect11314" width="173.178" height="33.986" x="2839.104" y="3071.134" rx=".068" ry=".074" transform="matrix(-0.8740313,-0.48586961,-0.51426471,0.85763151,0,0)" style="fill:#37c871;fill-opacity:1;fill-rule:evenodd;stroke:none"/><rect style="fill:#37c871;fill-opacity:1;fill-rule:evenodd;stroke:none" id="rect11316" width="173.178" height="33.986" x="2910.537" y="2949.729" rx=".068" ry=".074" transform="matrix(-0.8740313,-0.48586961,-0.51426471,0.85763151,0,0)"/><rect style="fill:#37c871;fill-opacity:1;fill-rule:evenodd;stroke:none" id="rect11318" width="173.178" height="33.986" x="2958.158" y="2868.791" rx=".068" ry=".074" transform="matrix(-0.8740313,-0.48586961,-0.51426471,0.85763151,0,0)"/><rect id="rect11320" width="173.178" height="33.986" x="2815.293" y="3111.602" rx=".068" ry=".074" transform="matrix(-0.8740313,-0.48586961,-0.51426471,0.85763151,0,0)" style="fill:#37c871;fill-opacity:1;fill-rule:evenodd;stroke:none"/><rect style="fill:#37c871;fill-opacity:1;fill-rule:evenodd;stroke:none" id="rect11322" width="173.178" height="33.986" x="2886.726" y="2990.197" rx=".068" ry=".074" transform="matrix(-0.8740313,-0.48586961,-0.51426471,0.85763151,0,0)"/><rect id="rect11324" width="173.178" height="33.986" x="3005.78" y="2787.855" rx=".068" ry=".074" transform="matrix(-0.8740313,-0.48586961,-0.51426471,0.85763151,0,0)" style="fill:#37c871;fill-opacity:1;fill-rule:evenodd;stroke:none"/><rect style="fill:#37c871;fill-opacity:1;fill-rule:evenodd;stroke:none" id="rect11326" width="173.178" height="33.986" x="3077.213" y="2666.449" rx=".068" ry=".074" transform="matrix(-0.8740313,-0.48586961,-0.51426471,0.85763151,0,0)"/><rect id="rect11328" width="173.178" height="33.986" x="2981.969" y="2828.323" rx=".068" ry=".074" transform="matrix(-0.8740313,-0.48586961,-0.51426471,0.85763151,0,0)" style="fill:#37c871;fill-opacity:1;fill-rule:evenodd;stroke:none"/><rect style="fill:#37c871;fill-opacity:1;fill-rule:evenodd;stroke:none" id="rect11330" width="173.178" height="33.986" x="2934.347" y="2909.26" rx=".068" ry=".074" transform="matrix(-0.8740313,-0.48586961,-0.51426471,0.85763151,0,0)"/><rect id="rect11332" width="173.178" height="33.986" x="3148.646" y="2545.044" rx=".068" ry=".074" transform="matrix(-0.8740313,-0.48586961,-0.51426471,0.85763151,0,0)" style="fill:#37c871;fill-opacity:1;fill-rule:evenodd;stroke:none"/><rect style="fill:#37c871;fill-opacity:1;fill-rule:evenodd;stroke:none" id="rect11334" width="173.178" height="33.986" x="3053.402" y="2706.918" rx=".068" ry=".074" transform="matrix(-0.8740313,-0.48586961,-0.51426471,0.85763151,0,0)"/><rect id="rect11336" width="173.178" height="33.986" x="3029.591" y="2747.386" rx=".068" ry=".074" transform="matrix(-0.8740313,-0.48586961,-0.51426471,0.85763151,0,0)" style="fill:#37c871;fill-opacity:1;fill-rule:evenodd;stroke:none"/><rect style="fill:#37c871;fill-opacity:1;fill-rule:evenodd;stroke:none" id="rect11338" width="173.178" height="33.986" x="3101.024" y="2625.981" rx=".068" ry=".074" transform="matrix(-0.8740313,-0.48586961,-0.51426471,0.85763151,0,0)"/><rect id="rect11340" width="173.178" height="33.986" x="3220.079" y="2423.638" rx=".068" ry=".074" transform="matrix(-0.8740313,-0.48586961,-0.51426471,0.85763151,0,0)" style="fill:#37c871;fill-opacity:1;fill-rule:evenodd;stroke:none"/><rect style="fill:#37c871;fill-opacity:1;fill-rule:evenodd;stroke:none" id="rect11342" width="173.178" height="33.986" x="3124.835" y="2585.512" rx=".068" ry=".074" transform="matrix(-0.8740313,-0.48586961,-0.51426471,0.85763151,0,0)"/><rect id="rect11344" width="173.178" height="33.986" x="3172.457" y="2504.575" rx=".068" ry=".074" transform="matrix(-0.8740313,-0.48586961,-0.51426471,0.85763151,0,0)" style="fill:#37c871;fill-opacity:1;fill-rule:evenodd;stroke:none"/><rect style="fill:#37c871;fill-opacity:1;fill-rule:evenodd;stroke:none" id="rect11346" width="173.178" height="33.986" x="3291.512" y="2302.233" rx=".068" ry=".074" transform="matrix(-0.8740313,-0.48586961,-0.51426471,0.85763151,0,0)"/><rect id="rect11348" width="173.178" height="33.986" x="3267.701" y="2342.701" rx=".068" ry=".074" transform="matrix(-0.8740313,-0.48586961,-0.51426471,0.85763151,0,0)" style="fill:#37c871;fill-opacity:1;fill-rule:evenodd;stroke:none"/><rect style="fill:#37c871;fill-opacity:1;fill-rule:evenodd;stroke:none" id="rect11350" width="173.178" height="33.986" x="3196.268" y="2464.107" rx=".068" ry=".074" transform="matrix(-0.8740313,-0.48586961,-0.51426471,0.85763151,0,0)"/><rect id="rect11352" width="173.178" height="33.986" x="3315.323" y="2261.764" rx=".068" ry=".074" transform="matrix(-0.8740313,-0.48586961,-0.51426471,0.85763151,0,0)" style="fill:#37c871;fill-opacity:1;fill-rule:evenodd;stroke:none"/><rect style="fill:#37c871;fill-opacity:1;fill-rule:evenodd;stroke:none" id="rect11354" width="173.178" height="33.986" x="3243.89" y="2383.17" rx=".068" ry=".074" transform="matrix(-0.8740313,-0.48586961,-0.51426471,0.85763151,0,0)"/><rect id="rect11356" width="173.178" height="33.986" x="3339.134" y="2221.296" rx=".068" ry=".074" transform="matrix(-0.8740313,-0.48586961,-0.51426471,0.85763151,0,0)" style="fill:#37c871;fill-opacity:1;fill-rule:evenodd;stroke:none"/></g><rect style="fill:#37c871;fill-opacity:1;fill-rule:evenodd;stroke:none" id="rect11358" width="173.178" height="33.986" x="-4251.124" y="-999.615" rx=".068" ry=".074" transform="matrix(0.8740313,-0.48586961,0.51426471,0.85763151,0,0)"/><rect style="fill:#37c871;fill-opacity:1;fill-rule:evenodd;stroke:none" id="rect11360" width="173.178" height="33.986" x="-4274.935" y="-959.146" rx=".068" ry=".074" transform="matrix(0.8740313,-0.48586961,0.51426471,0.85763151,0,0)"/><rect id="rect11362" width="173.178" height="33.986" x="-4203.502" y="-1080.552" rx=".068" ry=".074" transform="matrix(0.8740313,-0.48586961,0.51426471,0.85763151,0,0)" style="fill:#37c871;fill-opacity:1;fill-rule:evenodd;stroke:none"/><rect id="rect11364" width="173.178" height="33.986" x="-4155.88" y="-1161.489" rx=".068" ry=".074" transform="matrix(0.8740313,-0.48586961,0.51426471,0.85763151,0,0)" style="fill:#37c871;fill-opacity:1;fill-rule:evenodd;stroke:none"/><rect style="fill:#37c871;fill-opacity:1;fill-rule:evenodd;stroke:none" id="rect11366" width="173.178" height="33.986" x="-4298.746" y="-918.678" rx=".068" ry=".074" transform="matrix(0.8740313,-0.48586961,0.51426471,0.85763151,0,0)"/><rect id="rect11368" width="173.178" height="33.986" x="-4227.313" y="-1040.083" rx=".068" ry=".074" transform="matrix(0.8740313,-0.48586961,0.51426471,0.85763151,0,0)" style="fill:#37c871;fill-opacity:1;fill-rule:evenodd;stroke:none"/><rect style="fill:#37c871;fill-opacity:1;fill-rule:evenodd;stroke:none" id="rect11370" width="173.178" height="33.986" x="-4108.258" y="-1242.426" rx=".068" ry=".074" transform="matrix(0.8740313,-0.48586961,0.51426471,0.85763151,0,0)"/><rect id="rect11372" width="173.178" height="33.986" x="-4036.825" y="-1363.831" rx=".068" ry=".074" transform="matrix(0.8740313,-0.48586961,0.51426471,0.85763151,0,0)" style="fill:#37c871;fill-opacity:1;fill-rule:evenodd;stroke:none"/><rect style="fill:#37c871;fill-opacity:1;fill-rule:evenodd;stroke:none" id="rect11374" width="173.178" height="33.986" x="-4132.069" y="-1201.957" rx=".068" ry=".074" transform="matrix(0.8740313,-0.48586961,0.51426471,0.85763151,0,0)"/><rect id="rect11376" width="173.178" height="33.986" x="-4179.691" y="-1121.02" rx=".068" ry=".074" transform="matrix(0.8740313,-0.48586961,0.51426471,0.85763151,0,0)" style="fill:#37c871;fill-opacity:1;fill-rule:evenodd;stroke:none"/><rect style="fill:#37c871;fill-opacity:1;fill-rule:evenodd;stroke:none" id="rect11378" width="173.178" height="33.986" x="-3965.393" y="-1485.237" rx=".068" ry=".074" transform="matrix(0.8740313,-0.48586961,0.51426471,0.85763151,0,0)"/><rect id="rect11380" width="173.178" height="33.986" x="-4060.637" y="-1323.363" rx=".068" ry=".074" transform="matrix(0.8740313,-0.48586961,0.51426471,0.85763151,0,0)" style="fill:#37c871;fill-opacity:1;fill-rule:evenodd;stroke:none"/><rect style="fill:#37c871;fill-opacity:1;fill-rule:evenodd;stroke:none" id="rect11382" width="173.178" height="33.986" x="-4084.447" y="-1282.894" rx=".068" ry=".074" transform="matrix(0.8740313,-0.48586961,0.51426471,0.85763151,0,0)"/><rect id="rect11384" width="173.178" height="33.986" x="-4013.014" y="-1404.3" rx=".068" ry=".074" transform="matrix(0.8740313,-0.48586961,0.51426471,0.85763151,0,0)" style="fill:#37c871;fill-opacity:1;fill-rule:evenodd;stroke:none"/><rect style="fill:#37c871;fill-opacity:1;fill-rule:evenodd;stroke:none" id="rect11386" width="173.178" height="33.986" x="-3893.96" y="-1606.642" rx=".068" ry=".074" transform="matrix(0.8740313,-0.48586961,0.51426471,0.85763151,0,0)"/><rect id="rect11388" width="173.178" height="33.986" x="-3989.204" y="-1444.768" rx=".068" ry=".074" transform="matrix(0.8740313,-0.48586961,0.51426471,0.85763151,0,0)" style="fill:#37c871;fill-opacity:1;fill-rule:evenodd;stroke:none"/><rect style="fill:#37c871;fill-opacity:1;fill-rule:evenodd;stroke:none" id="rect11390" width="173.178" height="33.986" x="-3941.582" y="-1525.705" rx=".068" ry=".074" transform="matrix(0.8740313,-0.48586961,0.51426471,0.85763151,0,0)"/><rect id="rect11392" width="173.178" height="33.986" x="-3822.527" y="-1728.047" rx=".068" ry=".074" transform="matrix(0.8740313,-0.48586961,0.51426471,0.85763151,0,0)" style="fill:#37c871;fill-opacity:1;fill-rule:evenodd;stroke:none"/><rect style="fill:#37c871;fill-opacity:1;fill-rule:evenodd;stroke:none" id="rect11394" width="173.178" height="33.986" x="-3846.338" y="-1687.579" rx=".068" ry=".074" transform="matrix(0.8740313,-0.48586961,0.51426471,0.85763151,0,0)"/><rect id="rect11396" width="173.178" height="33.986" x="-3917.771" y="-1566.174" rx=".068" ry=".074" transform="matrix(0.8740313,-0.48586961,0.51426471,0.85763151,0,0)" style="fill:#37c871;fill-opacity:1;fill-rule:evenodd;stroke:none"/><rect style="fill:#37c871;fill-opacity:1;fill-rule:evenodd;stroke:none" id="rect11398" width="173.178" height="33.986" x="-3798.716" y="-1768.516" rx=".068" ry=".074" transform="matrix(0.8740313,-0.48586961,0.51426471,0.85763151,0,0)"/><rect id="rect11400" width="173.178" height="33.986" x="-3870.149" y="-1647.111" rx=".068" ry=".074" transform="matrix(0.8740313,-0.48586961,0.51426471,0.85763151,0,0)" style="fill:#37c871;fill-opacity:1;fill-rule:evenodd;stroke:none"/><rect style="fill:#37c871;fill-opacity:1;fill-rule:evenodd;stroke:none" id="rect11402" width="173.178" height="33.986" x="-3774.905" y="-1808.984" rx=".068" ry=".074" transform="matrix(0.8740313,-0.48586961,0.51426471,0.85763151,0,0)"/><rect id="rect11404" width="173.178" height="33.986" x="2862.915" y="3030.665" rx=".068" ry=".074" transform="matrix(-0.8740313,-0.48586961,-0.51426471,0.85763151,0,0)" style="fill:#37c871;fill-opacity:1;fill-rule:evenodd;stroke:none"/><rect id="rect11406" width="173.178" height="33.986" x="2839.104" y="3071.134" rx=".068" ry=".074" transform="matrix(-0.8740313,-0.48586961,-0.51426471,0.85763151,0,0)" style="fill:#37c871;fill-opacity:1;fill-rule:evenodd;stroke:none"/><rect style="fill:#37c871;fill-opacity:1;fill-rule:evenodd;stroke:none" id="rect11408" width="173.178" height="33.986" x="2910.537" y="2949.729" rx=".068" ry=".074" transform="matrix(-0.8740313,-0.48586961,-0.51426471,0.85763151,0,0)"/><rect style="fill:#37c871;fill-opacity:1;fill-rule:evenodd;stroke:none" id="rect11410" width="173.178" height="33.986" x="2958.158" y="2868.791" rx=".068" ry=".074" transform="matrix(-0.8740313,-0.48586961,-0.51426471,0.85763151,0,0)"/><rect id="rect11412" width="173.178" height="33.986" x="2815.293" y="3111.602" rx=".068" ry=".074" transform="matrix(-0.8740313,-0.48586961,-0.51426471,0.85763151,0,0)" style="fill:#37c871;fill-opacity:1;fill-rule:evenodd;stroke:none"/><rect style="fill:#37c871;fill-opacity:1;fill-rule:evenodd;stroke:none" id="rect11414" width="173.178" height="33.986" x="2886.726" y="2990.197" rx=".068" ry=".074" transform="matrix(-0.8740313,-0.48586961,-0.51426471,0.85763151,0,0)"/><rect id="rect11416" width="173.178" height="33.986" x="3005.78" y="2787.855" rx=".068" ry=".074" transform="matrix(-0.8740313,-0.48586961,-0.51426471,0.85763151,0,0)" style="fill:#37c871;fill-opacity:1;fill-rule:evenodd;stroke:none"/><rect style="fill:#37c871;fill-opacity:1;fill-rule:evenodd;stroke:none" id="rect11418" width="173.178" height="33.986" x="3077.213" y="2666.449" rx=".068" ry=".074" transform="matrix(-0.8740313,-0.48586961,-0.51426471,0.85763151,0,0)"/><rect id="rect11420" width="173.178" height="33.986" x="2981.969" y="2828.323" rx=".068" ry=".074" transform="matrix(-0.8740313,-0.48586961,-0.51426471,0.85763151,0,0)" style="fill:#37c871;fill-opacity:1;fill-rule:evenodd;stroke:none"/><rect style="fill:#37c871;fill-opacity:1;fill-rule:evenodd;stroke:none" id="rect11422" width="173.178" height="33.986" x="2934.347" y="2909.26" rx=".068" ry=".074" transform="matrix(-0.8740313,-0.48586961,-0.51426471,0.85763151,0,0)"/><rect id="rect11424" width="173.178" height="33.986" x="3148.646" y="2545.044" rx=".068" ry=".074" transform="matrix(-0.8740313,-0.48586961,-0.51426471,0.85763151,0,0)" style="fill:#37c871;fill-opacity:1;fill-rule:evenodd;stroke:none"/><rect style="fill:#37c871;fill-opacity:1;fill-rule:evenodd;stroke:none" id="rect11426" width="173.178" height="33.986" x="3053.402" y="2706.918" rx=".068" ry=".074" transform="matrix(-0.8740313,-0.48586961,-0.51426471,0.85763151,0,0)"/><rect id="rect11428" width="173.178" height="33.986" x="3029.591" y="2747.386" rx=".068" ry=".074" transform="matrix(-0.8740313,-0.48586961,-0.51426471,0.85763151,0,0)" style="fill:#37c871;fill-opacity:1;fill-rule:evenodd;stroke:none"/><rect style="fill:#37c871;fill-opacity:1;fill-rule:evenodd;stroke:none" id="rect11430" width="173.178" height="33.986" x="3101.024" y="2625.981" rx=".068" ry=".074" transform="matrix(-0.8740313,-0.48586961,-0.51426471,0.85763151,0,0)"/><rect id="rect11432" width="173.178" height="33.986" x="3220.079" y="2423.638" rx=".068" ry=".074" transform="matrix(-0.8740313,-0.48586961,-0.51426471,0.85763151,0,0)" style="fill:#37c871;fill-opacity:1;fill-rule:evenodd;stroke:none"/><rect style="fill:#37c871;fill-opacity:1;fill-rule:evenodd;stroke:none" id="rect11434" width="173.178" height="33.986" x="3124.835" y="2585.512" rx=".068" ry=".074" transform="matrix(-0.8740313,-0.48586961,-0.51426471,0.85763151,0,0)"/><rect id="rect11436" width="173.178" height="33.986" x="3172.457" y="2504.575" rx=".068" ry=".074" transform="matrix(-0.8740313,-0.48586961,-0.51426471,0.85763151,0,0)" style="fill:#37c871;fill-opacity:1;fill-rule:evenodd;stroke:none"/><rect style="fill:#37c871;fill-opacity:1;fill-rule:evenodd;stroke:none" id="rect11438" width="173.178" height="33.986" x="3291.512" y="2302.233" rx=".068" ry=".074" transform="matrix(-0.8740313,-0.48586961,-0.51426471,0.85763151,0,0)"/><rect id="rect11440" width="173.178" height="33.986" x="3267.701" y="2342.701" rx=".068" ry=".074" transform="matrix(-0.8740313,-0.48586961,-0.51426471,0.85763151,0,0)" style="fill:#37c871;fill-opacity:1;fill-rule:evenodd;stroke:none"/><rect style="fill:#37c871;fill-opacity:1;fill-rule:evenodd;stroke:none" id="rect11442" width="173.178" height="33.986" x="3196.268" y="2464.107" rx=".068" ry=".074" transform="matrix(-0.8740313,-0.48586961,-0.51426471,0.85763151,0,0)"/><rect id="rect11444" width="173.178" height="33.986" x="3315.323" y="2261.764" rx=".068" ry=".074" transform="matrix(-0.8740313,-0.48586961,-0.51426471,0.85763151,0,0)" style="fill:#37c871;fill-opacity:1;fill-rule:evenodd;stroke:none"/><rect style="fill:#37c871;fill-opacity:1;fill-rule:evenodd;stroke:none" id="rect11446" width="173.178" height="33.986" x="3243.89" y="2383.17" rx=".068" ry=".074" transform="matrix(-0.8740313,-0.48586961,-0.51426471,0.85763151,0,0)"/><rect id="rect11448" width="173.178" height="33.986" x="3339.134" y="2221.296" rx=".068" ry=".074" transform="matrix(-0.8740313,-0.48586961,-0.51426471,0.85763151,0,0)" style="fill:#37c871;fill-opacity:1;fill-rule:evenodd;stroke:none"/></g></g><g style="fill:#37c871;fill-opacity:1;stroke:none" id="g11450" transform="matrix(0.04929732,0,0,0.04929732,290.1839,40.888831)"><path id="path11452" d="m -5215.2988,178.0918 c -72.2569,-0.16596 -135.9929,18.9756 -164.0918,77.00195 -32.898,67.93677 39.6175,128.43268 119.4121,87.22852 114.2435,-58.99277 292.4721,-60.82904 345.6758,-62.80274 53.2037,1.9737 231.4322,3.80997 345.6757,62.80274 79.7946,41.20416 152.3102,-19.29175 119.4122,-87.22852 -73.0048,-150.76032 -386.5065,-39.05614 -465.0879,-8.19727 -48.3362,-18.98159 -185.5199,-68.53946 -300.9961,-68.80468 z" style="fill:#37c871;fill-opacity:1;fill-rule:evenodd;stroke:none"/><path id="path11454" d="m -4913.2641,-554.85054 c -3.5904,-0.0318 -7.2172,0.0936 -10.8756,0.3777 -128.8438,10.00579 -192.2629,190.14848 -96.5224,364.26946 88.3074,160.60268 85.7244,386.65633 81.2455,473.49005 l 83.5037,0 c -7.5931,-57.92545 -27.8706,-272.973206 53.7371,-485.58621 76.9231,-200.40867 0.2156,-351.56505 -111.0883,-352.551 z" style="fill:#37c871;fill-opacity:1;fill-rule:evenodd;stroke:none"/><g style="fill:#37c871;fill-opacity:1;stroke:none" id="g11456" transform="matrix(1.0004653,0,0,0.95580638,-3755.0803,-78.46909)"><path style="fill:#37c871;fill-opacity:1;fill-rule:evenodd;stroke:none" id="path11458" d="m -1151.1786,378.65407 -14.0372,-800.25306"/><path id="path11460" d="m -1138.0773,378.65407 -14.0372,-800.25306" style="fill:#37c871;fill-opacity:1;fill-rule:evenodd;stroke:none"/></g><path id="path11462" d="m -5275.7129,-429.68164 c -7.5374,0.0536 -15.2,0.58874 -22.9902,1.63086 -112.0548,14.98978 -127.7696,155.55286 -10.3946,221.23633 199.6784,111.740717 373.717,403.91465 378.9649,398.76367 l 15.8301,-8.63477 15.83,8.63477 c 5.2479,5.15098 179.2865,-287.022953 378.9649,-398.76367 117.375,-65.68347 101.6603,-206.24655 -10.3945,-221.23633 -225.3643,-30.14741 -344.4584,364.561353 -384.4004,530.86914 -38.5613,-160.558979 -150.8965,-533.99787 -361.4102,-532.5 z" style="fill:#37c871;fill-opacity:1;fill-rule:evenodd;stroke:none"/><path id="path11464" d="m -5356.7852,-193.37305 c -27.2947,0.001 -53.9677,6.56571 -79.373,21.4336 -85.2672,49.90065 -50.4953,168.510114 66.2871,181.8437469 198.6701,22.6831801 437.5666,199.4643031 440.0586,193.5410131 l 15.5098,-19.3789 15.5097,19.3789 c 2.492,5.92329 241.3885,-170.857833 440.0586,-193.5410131 116.7824,-13.3336329 151.5563,-131.9430969 66.2891,-181.8437469 -202.4329,-118.46915 -485.2667,290.19141 -521.8574,344.86328 -31.9986,-47.81055 -252.2895,-366.30607 -442.4825,-366.29688 z" style="fill:#37c871;fill-opacity:1;fill-rule:evenodd;stroke:none"/><path id="path11466" d="m -5338.832,1.5371094 c -46.5633,0.202778 -88.5882,14.1603306 -121.1289,48.5371096 -65.5294,69.226631 -1.324,169.724941 110.457,150.576171 137.4046,-23.53823 315.9129,21.77699 404.6836,46.41602 l 5.8515,14.17382 c 0.1283,1.1116 9.102,-1.24494 24.6661,-5.60937 15.5641,4.36443 24.5377,6.72097 24.666,5.60937 l 5.8515,-14.17382 c 88.7706,-24.63901 267.2789,-69.95427 404.6836,-46.41602 111.781,19.14877 175.9865,-81.34954 110.4571,-150.576171 -136.828,-144.548061 -441.1675,71.810331 -545.6582,153.818361 C -4993.9432,141.3879 -5189.6052,0.88724281 -5338.832,1.5371094 Z" style="fill:#37c871;fill-opacity:1;fill-rule:evenodd;stroke:none"/><path id="path11468" d="m -4916.1499,164.79034 c 0,0 209.5092,-509.07505 397.1301,-519.68341" style="fill:#37c871;fill-opacity:1;fill-rule:evenodd;stroke:none"/><path style="fill:#37c871;fill-opacity:1;fill-rule:evenodd;stroke:none" id="path11470" d="m -4936.1627,234.06303 c 0,0 407.226,-222.748012 535.8736,-130.25036"/><path id="path11472" d="m -4903.8758,175.58804 c 0,0 340.6917,-339.65225 495.5111,-284.88306" style="fill:#37c871;fill-opacity:1;fill-rule:evenodd;stroke:none"/><path id="path11474" d="m -4921.6318,258.16587 c 0,0 360.6965,-70.68804 435.6699,29.91926" style="fill:#37c871;fill-opacity:1;fill-rule:evenodd;stroke:none"/><path style="fill:#37c871;fill-opacity:1;fill-rule:evenodd;stroke:none" id="path11476" d="m -4912.4554,164.79034 c 0,0 -209.5092,-509.07505 -397.1301,-519.68341"/><path id="path11478" d="m -4892.4426,234.06303 c 0,0 -407.226,-222.748012 -535.8736,-130.25036" style="fill:#37c871;fill-opacity:1;fill-rule:evenodd;stroke:none"/><path style="fill:#37c871;fill-opacity:1;fill-rule:evenodd;stroke:none" id="path11480" d="m -4924.7295,175.58804 c 0,0 -340.6917,-339.65225 -495.5111,-284.88306"/><path style="fill:#37c871;fill-opacity:1;fill-rule:evenodd;stroke:none" id="path11482" d="m -4906.9735,258.16587 c 0,0 -360.6965,-70.68804 -435.6699,29.91926"/><path style="fill:#37c871;fill-opacity:1;fill-rule:evenodd;stroke:none" id="path11484" d="m -4909.4118,170.23823 c 0,0 209.5092,-509.07505 397.1301,-519.68342"/><path id="path11486" d="m -4934.6323,241.20696 c 0,0 407.2261,-222.74801 535.8737,-130.25036" style="fill:#37c871;fill-opacity:1;fill-rule:evenodd;stroke:none"/><path style="fill:#37c871;fill-opacity:1;fill-rule:evenodd;stroke:none" id="path11488" d="m -4900.2829,182.25357 c 0,0 340.6917,-339.65224 495.5111,-284.88306"/><path id="path11490" d="m -4919.1935,170.23823 c 0,0 -209.5092,-509.07505 -397.1301,-519.68342" style="fill:#37c871;fill-opacity:1;fill-rule:evenodd;stroke:none"/><path style="fill:#37c871;fill-opacity:1;fill-rule:evenodd;stroke:none" id="path11492" d="m -4893.973,241.20696 c 0,0 -407.2261,-222.74801 -535.8737,-130.25036"/><path id="path11494" d="m -4928.3224,182.25357 c 0,0 -340.6917,-339.65224 -495.5111,-284.88306" style="fill:#37c871;fill-opacity:1;fill-rule:evenodd;stroke:none"/><path style="fill:#37c871;fill-opacity:1;fill-rule:evenodd;stroke:none" id="path11496" d="m -4922.1861,263.92465 c 0,0 360.6964,-70.68804 435.6698,29.91925"/><path id="path11498" d="m -4906.4192,263.92465 c 0,0 -360.6964,-70.68804 -435.6698,29.91925" style="fill:#37c871;fill-opacity:1;fill-rule:evenodd;stroke:none"/></g><path style="fill:#3dc5e7;fill-opacity:1;fill-rule:evenodd;stroke:none" id="path11500" d="M 30.411209,3.7366894 A 45.705829,45.705829 0 0 0 2.2161529,45.939612 45.705829,45.705829 0 0 0 43.531028,91.390342 l 0,-8.797994 A 36.943515,36.943515 0 0 1 10.97847,45.939612 36.943515,36.943515 0 0 1 30.411169,13.447433 l 0,-9.7107436 z m 35.021571,0.027943 0,9.6569796 a 36.943515,36.943515 0 0 1 19.432697,32.518 36.943515,36.943515 0 0 1 -32.552553,36.635152 l 0,8.851008 A 45.705829,45.705829 0 0 0 93.627795,45.939612 45.705829,45.705829 0 0 0 65.43278,3.764632 Z"/></g></svg>